<svg width="108" height="117" viewBox="0 0 108 117" fill="none" xmlns="http://www.w3.org/2000/svg">
<path d="M54 19.5C58.7739 19.5 63.3523 21.5545 66.7279 25.2114C70.1036 28.8684 72 33.8283 72 39C72 44.1717 70.1036 49.1316 66.7279 52.7886C63.3523 56.4455 58.7739 58.5 54 58.5C49.2261 58.5 44.6477 56.4455 41.2721 52.7886C37.8964 49.1316 36 44.1717 36 39C36 33.8283 37.8964 28.8684 41.2721 25.2114C44.6477 21.5545 49.2261 19.5 54 19.5ZM54 68.25C73.89 68.25 90 76.9763 90 87.75V97.5H18V87.75C18 76.9763 34.11 68.25 54 68.25Z" fill="#DFD8D8"/>
</svg>
