<svg width="167" height="62" viewBox="0 0 167 62" fill="none" xmlns="http://www.w3.org/2000/svg">
<g clip-path="url(#clip0_13_26)">
<path d="M29.6131 2C45.969 2 59.2265 15.3514 59.2265 31.8191C59.2265 48.2867 45.969 61.6379 29.6131 61.6379C13.2573 61.6379 0 48.2865 0 31.8191C0 15.3516 13.2575 2 29.6131 2Z" fill="white" fill-opacity="0.91"/>
<path d="M16.687 42.9712H22.2322V24.3604H16.687V42.9712ZM38.29 23.7158C35.5988 23.7158 33.1909 24.7054 31.4827 26.8897V24.2992H25.9173V42.9714H31.4827V32.874C31.4827 30.74 33.4243 28.6583 35.8562 28.6583C38.2881 28.6583 38.8879 30.74 38.8879 32.8218V42.9696H44.433V32.4062C44.4328 25.0687 40.9829 23.7158 38.29 23.7158ZM19.4337 22.5006C20.9662 22.5006 22.21 21.2481 22.21 19.705C22.21 18.1618 20.9662 16.9095 19.4337 16.9095C17.9012 16.9095 16.6573 18.162 16.6573 19.7052C16.6573 21.2483 17.9012 22.5006 19.4337 22.5006Z" fill="#090E16"/>
</g>
<path fill-rule="evenodd" clip-rule="evenodd" d="M134.747 0C117.207 0 103 13.7646 103 30.7588C103 44.3696 112.088 55.8657 124.707 59.9412C126.294 60.2104 126.889 59.2876 126.889 58.4802C126.889 57.7497 126.85 55.3274 126.85 52.7514C118.873 54.174 116.81 50.8674 116.175 49.1372C115.818 48.2529 114.27 45.523 112.921 44.7925C111.81 44.2158 110.222 42.7932 112.881 42.7548C115.381 42.7163 117.167 44.9848 117.762 45.9075C120.619 50.5598 125.183 49.2526 127.009 48.4451C127.286 46.4458 128.12 45.1001 129.032 44.3311C121.969 43.5622 114.588 40.9092 114.588 29.144C114.588 25.799 115.818 23.0307 117.842 20.8775C117.524 20.1086 116.413 16.9558 118.159 12.7265C118.159 12.7265 120.818 11.919 126.889 15.8792C129.429 15.1872 132.128 14.8411 134.826 14.8411C137.525 14.8411 140.223 15.1872 142.763 15.8792C148.834 11.8806 151.493 12.7265 151.493 12.7265C153.239 16.9558 152.128 20.1086 151.811 20.8775C153.835 23.0307 155.065 25.7605 155.065 29.144C155.065 40.9477 147.644 43.5622 140.58 44.3311C141.731 45.2924 142.723 47.1379 142.723 50.0215C142.723 54.1355 142.684 57.4421 142.684 58.4802C142.684 59.2876 143.279 60.2488 144.866 59.9412C157.406 55.8657 166.494 44.3311 166.494 30.7588C166.494 13.7646 152.287 0 134.747 0Z" fill="white" fill-opacity="0.91"/>
<defs>
<clipPath id="clip0_13_26">
<rect width="59.2265" height="59.6379" fill="white" transform="translate(0 2)"/>
</clipPath>
</defs>
</svg>
