<svg width="85" height="69" viewBox="0 0 85 69" fill="none" xmlns="http://www.w3.org/2000/svg">
<path d="M77.9167 0.683594H7.08333C5.20472 0.683594 3.40304 1.47558 2.07466 2.88531C0.746278 4.29505 0 6.20707 0 8.20074L0 60.8207C0 62.8144 0.746278 64.7264 2.07466 66.1362C3.40304 67.5459 5.20472 68.3379 7.08333 68.3379H77.9167C79.7953 68.3379 81.597 67.5459 82.9253 66.1362C84.2537 64.7264 85 62.8144 85 60.8207V8.20074C85 6.20707 84.2537 4.29505 82.9253 2.88531C81.597 1.47558 79.7953 0.683594 77.9167 0.683594ZM77.9167 60.8207H7.08333V8.20074H77.9167V60.8207ZM74.375 11.9593H49.5833V30.7522H74.375V11.9593ZM70.8333 19.4765L61.9792 26.054L53.125 19.4765V15.7179L61.9792 22.2954L70.8333 15.7179V19.4765ZM31.875 34.5107C34.6929 34.5107 37.3954 33.3228 39.388 31.2082C41.3806 29.0936 42.5 26.2255 42.5 23.235C42.5 20.2445 41.3806 17.3765 39.388 15.2619C37.3954 13.1473 34.6929 11.9593 31.875 11.9593C29.0571 11.9593 26.3546 13.1473 24.362 15.2619C22.3694 17.3765 21.25 20.2445 21.25 23.235C21.25 26.2255 22.3694 29.0936 24.362 31.2082C26.3546 33.3228 29.0571 34.5107 31.875 34.5107ZM31.875 19.4765C32.8143 19.4765 33.7151 19.8724 34.3793 20.5773C35.0435 21.2822 35.4167 22.2382 35.4167 23.235C35.4167 24.2319 35.0435 25.1879 34.3793 25.8927C33.7151 26.5976 32.8143 26.9936 31.875 26.9936C30.9357 26.9936 30.0349 26.5976 29.3707 25.8927C28.7065 25.1879 28.3333 24.2319 28.3333 23.235C28.3333 22.2382 28.7065 21.2822 29.3707 20.5773C30.0349 19.8724 30.9357 19.4765 31.875 19.4765ZM53.125 51.7626C53.125 42.3662 39.0646 38.2693 31.875 38.2693C24.6854 38.2693 10.625 42.3662 10.625 51.7626V57.0622H53.125V51.7626ZM19.4792 49.545C22.0292 47.6657 27.2708 45.7865 31.875 45.7865C36.4792 45.7865 41.6854 47.6657 44.2708 49.545H19.4792Z" fill="white"/>
</svg>
