<svg width="93" height="88" viewBox="0 0 93 88" fill="none" xmlns="http://www.w3.org/2000/svg">
<path d="M0 44C0 32.3305 4.89909 21.1389 13.6195 12.8873C22.34 4.6357 34.1674 0 46.5 0C52.6065 0 58.6531 1.13809 64.2948 3.3493C69.9364 5.56051 75.0625 8.80152 79.3805 12.8873C83.6984 16.9731 87.1236 21.8236 89.4604 27.1619C91.7972 32.5003 93 38.2218 93 44C93 55.6695 88.1009 66.8611 79.3805 75.1127C70.66 83.3643 58.8326 88 46.5 88C40.3935 88 34.3469 86.8619 28.7052 84.6507C23.0636 82.4395 17.9375 79.1985 13.6195 75.1127C4.89909 66.8611 0 55.6695 0 44ZM74.4 39.6H37.2L53.475 24.2L46.872 17.952L19.344 44L46.872 70.048L53.475 63.8L37.2 48.4H74.4V39.6Z" fill="white" fill-opacity="0.67"/>
</svg>
