<svg width="87" height="90" viewBox="0 0 87 90" fill="none" xmlns="http://www.w3.org/2000/svg">
<path d="M87 44.6154C87 56.4481 82.417 67.7962 74.2591 76.1632C66.1013 84.5302 55.0369 89.2308 43.5 89.2308C37.7875 89.2308 32.1309 88.0768 26.8533 85.8346C21.5756 83.5925 16.7802 80.3061 12.7409 76.1632C4.58302 67.7962 0 56.4481 0 44.6154C0 32.7826 4.58302 21.4346 12.7409 13.0675C20.8987 4.70054 31.9631 0 43.5 0C49.2125 0 54.8691 1.15401 60.1467 3.39614C65.4244 5.63828 70.2198 8.92462 74.2591 13.0675C78.2985 17.2105 81.5027 22.1288 83.6888 27.5418C85.8748 32.9548 87 38.7564 87 44.6154ZM17.4 49.0769H52.2L36.975 64.6923L43.152 71.0277L68.904 44.6154L43.152 18.2031L36.975 24.5385L52.2 40.1538H17.4V49.0769Z" fill="white" fill-opacity="0.83"/>
</svg>
